<svg xmlns="http://www.w3.org/2000/svg" width="7" height="20" viewBox="0 0 7 20" fill="none">
  <path d="M3.5 0.498047C4.06227 1.24449 4.80251 2.29111 5.43066 3.3252C5.79176 3.91965 6.11295 4.50394 6.34277 5.02051C6.57698 5.54692 6.70008 5.96659 6.7002 6.24512V17.1992C6.68806 17.6151 6.51698 18.2547 6.04199 18.7793C5.57654 19.2934 4.79533 19.7243 3.50586 19.6992H3.49414C2.20467 19.7243 1.42346 19.2934 0.958008 18.7793C0.483024 18.2547 0.311935 17.6151 0.299805 17.1992V6.24512C0.299918 5.96659 0.423017 5.54692 0.657227 5.02051C0.887055 4.50394 1.20824 3.91965 1.56934 3.3252C2.19749 2.29111 2.93773 1.24449 3.5 0.498047Z" fill="#8A704B" stroke="black" stroke-width="0.6" stroke-linecap="round" stroke-linejoin="round"/>
</svg>